<svg width="1440" height="279" viewBox="0 0 1440 279" fill="currenColor" xmlns="http://www.w3.org/2000/svg">
<path  d="M0 148.6L27.2192 170.299C54.3364 192.406 109.081 235.194 163.111 219.199C217.448 202.594 272.192 127.206 326.222 83.3999C380.559 39.5937 435.303 29.4062 489.333 39.8993C543.67 50.7999 598.414 83.3999 652.444 116C706.781 148.6 761.525 181.2 815.556 186.599C869.892 192.406 924.636 169.994 978.667 143.201C1033 116 1087.75 83.3999 1141.78 56.1993C1196.11 29.4062 1250.86 6.99369 1304.89 1.89994C1359.23 -3.19381 1413.97 6.99369 1440.48 12.8006L1468 18.1999V279H1440.78C1413.66 279 1358.92 279 1304.89 279C1250.55 279 1195.81 279 1141.78 279C1087.44 279 1032.7 279 978.667 279C924.33 279 869.586 279 815.556 279C761.219 279 706.475 279 652.444 279C598.108 279 543.364 279 489.333 279C434.997 279 380.253 279 326.222 279C271.886 279 217.142 279 163.111 279C108.775 279 54.0306 279 27.525 279H0V148.6Z" fill="#4A5696"/>
</svg>
