<svg width="68" height="68" viewBox="0 0 68 68" fill="none" xmlns="http://www.w3.org/2000/svg">
<path d="M14.4185 22.0143L42.4784 50.0742C42.6811 50.2769 43.0096 50.2769 43.2123 50.0742L51.6522 41.6343C51.8548 41.4317 51.8548 41.1031 51.6522 40.9004L23.5922 12.8405C23.5028 12.751 23.3837 12.6973 23.2574 12.6895L14.2592 12.1311C13.9478 12.1118 13.6898 12.3698 13.7091 12.6812L14.2675 21.6794C14.2753 21.8057 14.329 21.9248 14.4185 22.0143Z" fill="white"/>
<path d="M38.4423 54.1107C38.2396 53.908 38.2396 53.5794 38.4423 53.3768L54.9551 36.864C55.1578 36.6613 55.4864 36.6613 55.689 36.864L57.5238 38.6987C57.7264 38.9014 57.7264 39.23 57.5238 39.4326L41.011 55.9454C40.8083 56.1481 40.4797 56.1481 40.2771 55.9454L38.4423 54.1107Z" fill="white"/>
<path d="M53.4874 54.4776C53.2847 54.6803 52.9562 54.6803 52.7535 54.4776L46.1484 47.8725C45.9457 47.6698 45.9457 47.3412 46.1484 47.1386L48.717 44.5699C48.9197 44.3673 49.2483 44.3673 49.451 44.5699L56.0561 51.175C56.2587 51.3777 56.2587 51.7063 56.0561 51.9089L53.4874 54.4776Z" fill="white"/>
<path d="M53.507 22.0143L25.4471 50.0742C25.2444 50.2769 24.9159 50.2769 24.7132 50.0742L16.2733 41.6343C16.0707 41.4317 16.0707 41.1031 16.2733 40.9004L44.3333 12.8405C44.4227 12.751 44.5418 12.6973 44.6681 12.6895L53.6663 12.1311C53.9777 12.1118 54.2357 12.3698 54.2164 12.6812L53.658 21.6794C53.6502 21.8057 53.5965 21.9248 53.507 22.0143Z" fill="white"/>
<path d="M29.4854 54.1107C29.6881 53.908 29.6881 53.5794 29.4854 53.3768L12.9726 36.864C12.7699 36.6613 12.4414 36.6613 12.2387 36.864L10.4039 38.6987C10.2013 38.9014 10.2013 39.23 10.4039 39.4326L26.9167 55.9454C27.1194 56.1481 27.448 56.1481 27.6507 55.9454L29.4854 54.1107Z" fill="white"/>
<path d="M14.4381 54.4776C14.6407 54.6803 14.9693 54.6803 15.172 54.4776L21.7771 47.8725C21.9798 47.6698 21.9798 47.3412 21.7771 47.1386L19.2084 44.5699C19.0058 44.3673 18.6772 44.3673 18.4745 44.5699L11.8694 51.175C11.6668 51.3777 11.6668 51.7063 11.8694 51.9089L14.4381 54.4776Z" fill="white"/>
</svg>
