<svg width="68" height="68" viewBox="0 0 68 68" fill="none" xmlns="http://www.w3.org/2000/svg">
<path d="M10.2195 9C9.54599 9 9 9.546 9 10.2195V30.9512C9 31.6247 9.546 32.1707 10.2195 32.1707H13.8789C13.8789 28.4664 16.8819 25.4634 20.5862 25.4634C24.2906 25.4634 27.2935 28.4664 27.2935 32.1707H30.9512C31.6247 32.1707 32.1707 31.6247 32.1707 30.9512V10.2195C32.1707 9.54599 31.6247 9 30.9512 9H10.2195Z" fill="#27272a"/>
<path d="M26.6834 35.8293V35.8293C26.6834 32.4617 23.9534 29.7317 20.5858 29.7317C17.2183 29.7317 14.4883 32.4617 14.4883 35.8293V35.8293L10.2195 35.8293C9.54599 35.8293 9 36.3753 9 37.0488V57.7805C9 58.454 9.546 59 10.2195 59H30.9512C31.6247 59 32.1707 58.454 32.1707 57.7805V54.7317C28.4664 54.7317 25.4629 51.7287 25.4629 48.0244C25.4629 44.32 28.4659 41.3171 32.1702 41.3171L32.1707 37.0488C32.1707 36.3753 31.6247 35.8293 30.9512 35.8293L26.6834 35.8293Z" fill="#27272a"/>
<path d="M37.0496 35.8293H40.707C40.707 39.5336 43.71 42.5366 47.4143 42.5366C51.1187 42.5366 54.1217 39.5336 54.1217 35.8293H57.7813C58.4548 35.8293 59.0008 36.3753 59.0008 37.0488V57.7805C59.0008 58.454 58.4548 59 57.7813 59H37.0496C36.3761 59 35.8301 58.454 35.8301 57.7805V54.1219V54.1219C32.4625 54.1219 29.7324 51.392 29.7324 48.0244C29.7324 44.6568 32.4624 41.9268 35.83 41.9268V41.9268L35.8301 37.0488C35.8301 36.3753 36.3761 35.8293 37.0496 35.8293Z" fill="#27272a"/>
<path d="M35.8301 10.2195C35.8301 9.546 36.3761 9 37.0496 9H57.7813C58.4548 9 59.0008 9.54599 59.0008 10.2195V30.9512C59.0008 31.6247 58.4548 32.1707 57.7813 32.1707L53.5115 32.1707C53.5115 35.5383 50.7816 38.2683 47.414 38.2683C44.0464 38.2683 41.3164 35.5383 41.3164 32.1707L37.0496 32.1707C36.3761 32.1707 35.8301 31.6247 35.8301 30.9512V27.2927C39.5337 27.2918 42.5357 24.2892 42.5357 20.5854C42.5357 16.8816 39.5337 13.879 35.8301 13.8781V10.2195Z" fill="#27272a"/>
<path d="M38.2683 20.5854C38.2683 23.953 35.5383 26.6829 32.1707 26.6829C28.8031 26.6829 26.0732 23.953 26.0732 20.5854C26.0732 17.2178 28.8031 14.4878 32.1707 14.4878C35.5383 14.4878 38.2683 17.2178 38.2683 20.5854Z" fill="#27272a"/>
</svg>
