<svg width="36" height="34" viewBox="0 0 36 34" fill="none" xmlns="http://www.w3.org/2000/svg">
<path fill-rule="evenodd" clip-rule="evenodd" d="M16.0276 0.554911C16.9463 -0.049228 18.1363 -0.049228 19.0549 0.554911L33.8411 10.2785C35.1123 11.1144 35.4651 12.8227 34.6292 14.0939C33.7932 15.3651 32.085 15.7179 30.8138 14.882L17.5413 6.1538L4.26881 14.882C2.9976 15.7179 1.28938 15.3651 0.453413 14.0939C-0.382558 12.8227 -0.0297199 11.1144 1.2415 10.2785L16.0276 0.554911Z" fill="#E3E3E3"/>
<path fill-rule="evenodd" clip-rule="evenodd" d="M6.04 16.0131C7.56146 16.0131 8.79485 17.2464 8.79485 18.7679V28.3885H26.2858V18.7679C26.2858 17.2464 27.5192 16.0131 29.0407 16.0131C30.5621 16.0131 31.7955 17.2464 31.7955 18.7679V30.0826C31.7955 31.9962 30.3076 33.8982 28.0549 33.8982H7.02574C4.77317 33.8982 3.28516 31.9963 3.28516 30.0826V18.7679C3.28516 17.2464 4.51854 16.0131 6.04 16.0131Z" fill="#E3E3E3"/>
</svg>
